<?xml version="1.0" standalone="no"?>
<!DOCTYPE svg PUBLIC "-//W3C//DTD SVG 20010904//EN"
 "http://www.w3.org/TR/2001/REC-SVG-20010904/DTD/svg10.dtd">
<svg version="1.0" xmlns="http://www.w3.org/2000/svg"
 width="768.000000pt" height="768.000000pt" viewBox="0 0 768.000000 768.000000"
 preserveAspectRatio="xMidYMid meet">
<metadata>
Created by potrace 1.10, written by Peter Selinger 2001-2011
</metadata>
<g transform="translate(0.000000,768.000000) scale(0.100000,-0.100000)"
fill="#000000" stroke="none">
<path d="M1732 7664 c4 -21 22 -23 26 -1 2 10 -3 17 -13 17 -10 0 -15 -6 -13
-16z"/>
<path d="M1063 7574 c-3 -8 -1 -20 6 -27 14 -14 47 15 37 32 -10 16 -36 13
-43 -5z"/>
<path d="M4280 7565 c0 -8 7 -15 15 -15 8 0 15 7 15 15 0 8 -7 15 -15 15 -8 0
-15 -7 -15 -15z"/>
<path d="M1817 7553 c-12 -12 -7 -31 10 -37 21 -8 35 6 27 27 -6 17 -25 22
-37 10z"/>
<path d="M1191 7516 c-9 -11 -6 -18 19 -36 40 -28 48 -20 20 19 -25 36 -24 35
-39 17z"/>
<path d="M4427 7523 c-15 -14 -6 -32 22 -41 26 -9 29 -8 24 6 -13 35 -32 50
-46 35z"/>
<path d="M5022 7505 c-40 -46 -20 -63 24 -22 21 20 23 26 11 35 -11 9 -18 6
-35 -13z"/>
<path d="M4604 7335 c-7 -18 3 -35 22 -35 20 0 30 30 13 41 -20 12 -29 11 -35
-6z"/>
<path d="M4911 7336 c-10 -12 -10 -20 1 -41 l14 -26 13 27 c10 22 10 30 -2 41
-12 12 -16 12 -26 -1z"/>
<path d="M2001 7306 c-9 -11 -6 -18 19 -36 40 -28 48 -20 20 19 -25 36 -24 35
-39 17z"/>
<path d="M1335 7301 c-3 -6 -1 -20 6 -33 11 -21 12 -21 25 -3 8 11 13 24 11
30 -5 14 -34 18 -42 6z"/>
<path d="M4670 7195 c0 -16 6 -25 15 -25 9 0 15 9 15 25 0 16 -6 25 -15 25 -9
0 -15 -9 -15 -25z"/>
<path d="M2114 7155 c-4 -9 -2 -21 4 -27 15 -15 44 -1 40 19 -4 23 -36 29 -44
8z"/>
<path d="M4886 7102 c-4 -6 -7 -986 -9 -2179 l-2 -2168 -42 -3 c-29 -2 -43 -8
-43 -18 0 -22 82 -19 103 4 15 17 17 189 17 2187 0 1289 -3 2172 -9 2178 -5 5
-11 5 -15 -1z"/>
<path d="M4697 7078 c-8 -30 2 -68 18 -68 16 0 26 37 19 67 -8 29 -30 30 -37
1z"/>
<path d="M2242 7007 c-16 -19 7 -40 28 -27 13 8 13 11 -1 25 -13 14 -17 14
-27 2z"/>
<path d="M1526 6952 c-7 -12 -9 -3303 -1 -3310 3 -3 10 -1 15 4 13 13 14 3294
1 3307 -5 5 -11 5 -15 -1z"/>
<path d="M2300 6910 c0 -13 37 -50 50 -50 16 0 12 18 -10 40 -22 22 -40 26
-40 10z"/>
<path d="M1405 6878 c-9 -23 -2 -83 10 -83 14 0 19 75 6 88 -7 7 -12 5 -16 -5z"/>
<path d="M1647 6823 c-3 -5 5 -21 17 -36 19 -24 24 -26 35 -14 10 12 6 19 -18
36 -16 12 -32 18 -34 14z"/>
<path d="M1405 6767 c-9 -22 -2 -62 10 -60 6 1 11 14 13 29 4 32 -14 56 -23
31z"/>
<path d="M2414 6765 c-4 -10 -1 -21 7 -26 20 -12 34 -5 34 17 0 24 -33 31 -41
9z"/>
<path d="M1407 6683 c-4 -3 -7 -22 -7 -40 0 -42 23 -41 28 1 4 29 -9 52 -21
39z"/>
<path d="M1790 6636 c0 -9 7 -16 16 -16 17 0 14 22 -4 28 -7 2 -12 -3 -12 -12z"/>
<path d="M1405 6578 c-8 -26 0 -173 10 -171 13 4 17 171 4 178 -5 4 -11 0 -14
-7z"/>
<path d="M1820 6575 c0 -8 7 -15 15 -15 8 0 15 7 15 15 0 8 -7 15 -15 15 -8 0
-15 -7 -15 -15z"/>
<path d="M2600 6515 c0 -8 6 -15 14 -15 8 0 17 -7 20 -16 3 -8 11 -12 17 -8 9
5 7 11 -4 19 -10 7 -17 17 -17 24 0 6 -7 11 -15 11 -8 0 -15 -7 -15 -15z"/>
<path d="M1940 6425 c0 -8 7 -15 15 -15 8 0 15 7 15 15 0 8 -7 15 -15 15 -8 0
-15 -7 -15 -15z"/>
<path d="M1405 6377 c-9 -22 -2 -62 10 -60 6 1 11 14 13 29 4 32 -14 56 -23
31z"/>
<path d="M2714 6375 c-4 -10 -1 -21 7 -26 20 -12 34 -5 34 17 0 24 -33 31 -41
9z"/>
<path d="M1402 6201 c0 -68 3 -91 13 -91 18 0 16 171 -2 177 -8 3 -11 -22 -11
-86z"/>
<path d="M2120 6185 c0 -8 7 -15 15 -15 8 0 15 7 15 15 0 8 -7 15 -15 15 -8 0
-15 -7 -15 -15z"/>
<path d="M1405 6077 c-9 -22 -2 -62 10 -60 6 1 11 14 13 29 4 32 -14 56 -23
31z"/>
<path d="M2240 6035 c0 -8 7 -15 15 -15 8 0 15 7 15 15 0 8 -7 15 -15 15 -8 0
-15 -7 -15 -15z"/>
<path d="M1407 5993 c-7 -11 -7 -154 0 -177 11 -38 21 7 21 91 0 75 -8 107
-21 86z"/>
<path d="M3021 5986 c-9 -10 -8 -16 4 -26 20 -16 38 -1 29 23 -8 21 -18 22
-33 3z"/>
<path d="M2360 5885 c0 -8 7 -15 15 -15 8 0 15 7 15 15 0 8 -7 15 -15 15 -8 0
-15 -7 -15 -15z"/>
<path d="M2420 5795 c0 -8 7 -15 15 -15 8 0 15 7 15 15 0 8 -7 15 -15 15 -8 0
-15 -7 -15 -15z"/>
<path d="M1402 5754 c2 -22 8 -38 13 -36 15 3 12 65 -3 70 -10 3 -13 -6 -10
-34z"/>
<path d="M5152 5705 c3 -33 7 -41 28 -46 59 -13 90 -31 90 -52 0 -30 42 -68
71 -65 21 3 25 -2 29 -37 6 -44 34 -110 50 -120 18 -11 11 -43 -11 -50 -17 -6
-20 -12 -15 -38 3 -17 13 -38 20 -46 36 -41 41 -344 39 -2261 -2 -1825 -2
-1831 -47 -1915 -21 -40 -20 -62 4 -70 24 -7 26 -33 5 -61 -8 -10 -15 -27 -15
-36 0 -10 -9 -22 -21 -28 -17 -10 -19 -17 -13 -56 5 -38 3 -49 -16 -69 -15
-16 -21 -31 -17 -47 5 -19 0 -26 -26 -39 -26 -13 -32 -22 -31 -47 1 -23 -3
-33 -17 -37 -10 -4 -19 -15 -19 -26 0 -11 -8 -23 -17 -26 -10 -4 -33 -20 -51
-37 -18 -17 -38 -31 -45 -31 -21 -1 -37 -16 -37 -35 0 -27 -49 -39 -62 -16 -5
9 -15 16 -23 16 -8 0 -19 9 -25 20 -14 26 -31 25 -53 -1 -16 -18 -20 -19 -40
-6 -12 7 -35 17 -52 21 -16 4 -33 12 -36 18 -4 6 -51 11 -116 12 -78 1 -115 5
-127 15 -24 20 -263 22 -275 2 -6 -9 -28 -15 -62 -15 -43 -1 -54 -5 -57 -19
-2 -10 -13 -17 -27 -17 -16 0 -26 -8 -31 -22 -4 -12 -20 -33 -35 -47 -16 -14
-29 -34 -29 -45 0 -10 -13 -32 -30 -48 -26 -24 -30 -36 -30 -79 0 -47 3 -53
50 -98 27 -26 50 -53 50 -60 0 -20 51 -13 57 9 6 22 12 24 45 11 14 -5 58 -10
99 -12 66 -3 79 0 105 19 l29 23 -157 -3 -156 -2 -41 42 c-27 27 -41 51 -41
68 0 64 143 227 209 239 14 3 47 12 72 20 55 18 201 20 231 4 12 -6 73 -17
137 -24 64 -7 142 -20 174 -29 32 -9 72 -16 90 -16 32 0 117 -33 117 -45 0
-14 -62 -64 -112 -90 -81 -42 -92 -49 -114 -68 -12 -10 -28 -17 -35 -16 -8 1
-23 -1 -34 -6 -11 -4 -35 -14 -54 -21 -18 -8 -45 -14 -58 -14 -14 0 -39 -6
-56 -14 -73 -33 -111 -46 -139 -46 -23 0 -29 -4 -26 -17 5 -28 79 -30 103 -3
10 11 24 20 32 20 7 0 16 7 20 16 4 12 15 14 52 9 37 -5 52 -2 71 13 31 23 77
35 85 22 12 -19 31 -10 50 26 15 28 23 34 40 30 15 -4 29 1 40 15 13 13 29 19
49 17 26 -2 32 1 34 20 4 24 12 28 29 11 15 -15 33 -3 33 21 0 21 28 40 59 40
13 0 23 8 27 24 3 13 13 27 22 30 26 8 55 29 70 49 7 9 21 17 31 17 9 0 28 18
41 40 14 22 30 40 36 40 16 0 64 47 64 62 0 8 8 21 18 30 9 8 26 28 37 42 22
29 28 36 66 69 14 13 29 36 33 52 4 16 21 45 37 64 16 20 34 41 39 47 5 7 13
27 18 45 6 27 14 35 35 37 25 3 27 6 22 36 -5 24 -2 36 14 50 13 12 19 26 16
37 -4 11 6 27 30 46 30 25 34 32 21 42 -13 11 -12 16 2 42 9 16 20 29 25 29 4
0 7 18 7 40 0 43 33 100 57 100 21 0 15 28 -7 35 -23 7 -27 33 -5 41 8 4 15
14 15 25 0 10 9 23 20 29 18 10 20 17 14 75 -5 51 -3 70 10 89 9 14 16 31 16
38 0 7 9 30 20 50 20 39 18 68 -6 68 -18 0 -17 33 1 85 8 22 15 60 15 85 0 25
7 72 15 104 12 50 14 303 15 1562 1 827 -1 1507 -4 1512 -11 18 7 173 22 188
8 8 14 32 14 55 -1 32 4 43 29 61 16 12 29 31 29 41 0 21 43 67 62 67 6 0 25
10 42 23 17 13 39 26 49 30 14 5 17 15 15 44 l-3 37 -558 0 -558 1 3 -40z
m931 -4 c75 -12 76 -20 10 -103 -33 -41 -64 -88 -70 -104 -42 -115 -42 -121
-44 -649 -3 -1241 -18 -2724 -28 -2790 -6 -38 -15 -117 -20 -175 -6 -58 -17
-130 -26 -160 -8 -30 -15 -75 -15 -98 0 -24 -6 -58 -14 -75 -30 -71 -36 -89
-36 -110 0 -12 -9 -37 -20 -55 -11 -18 -20 -41 -20 -51 0 -11 -6 -32 -14 -48
-18 -34 -55 -118 -86 -193 -13 -30 -36 -72 -51 -92 -16 -20 -29 -41 -29 -46 0
-24 -117 -184 -190 -258 -79 -81 -110 -101 -110 -69 0 8 4 15 8 15 10 0 42 65
42 84 0 8 7 19 15 26 8 7 15 27 15 45 0 18 11 63 25 101 17 47 24 80 20 104
-3 21 4 74 17 130 l22 95 4 1802 c3 1763 0 2006 -29 2173 -6 36 -12 88 -13
115 -5 93 -46 213 -90 258 -46 48 -78 98 -72 113 3 8 26 14 58 17 106 7 694 6
741 -2z"/>
<path d="M1405 5688 c-9 -27 0 -273 10 -271 13 4 17 271 4 279 -5 3 -11 -1
-14 -8z"/>
<path d="M2540 5645 c0 -8 7 -15 15 -15 8 0 15 7 15 15 0 8 -7 15 -15 15 -8 0
-15 -7 -15 -15z"/>
<path d="M3321 5596 c-9 -10 -8 -16 3 -25 10 -9 16 -8 25 3 9 10 8 16 -3 25
-10 9 -16 8 -25 -3z"/>
<path d="M2660 5495 c0 -8 7 -15 15 -15 8 0 15 7 15 15 0 8 -7 15 -15 15 -8 0
-15 -7 -15 -15z"/>
<path d="M2720 5405 c0 -8 7 -15 15 -15 8 0 15 7 15 15 0 8 -7 15 -15 15 -8 0
-15 -7 -15 -15z"/>
<path d="M1405 5388 c-9 -27 0 -268 10 -268 13 0 17 268 4 276 -5 3 -11 -1
-14 -8z"/>
<path d="M2810 5285 c0 -8 7 -15 15 -15 8 0 15 -7 15 -15 0 -8 7 -15 15 -15 8
0 15 7 15 15 0 8 -7 15 -15 15 -8 0 -15 7 -15 15 0 8 -7 15 -15 15 -8 0 -15
-7 -15 -15z"/>
<path d="M3590 5255 c0 -8 7 -15 15 -15 8 0 15 7 15 15 0 8 -7 15 -15 15 -8 0
-15 -7 -15 -15z"/>
<path d="M3626 5213 c-12 -12 -6 -33 9 -33 8 0 15 6 15 14 0 17 -14 28 -24 19z"/>
<path d="M1405 5087 c-9 -22 -2 -62 10 -60 6 1 11 14 13 29 4 32 -14 56 -23
31z"/>
<path d="M1406 4998 c-9 -26 -1 -263 9 -268 13 -6 17 268 4 276 -5 3 -11 -1
-13 -8z"/>
<path d="M3080 4955 c0 -8 7 -15 15 -15 8 0 15 7 15 15 0 8 -7 15 -15 15 -8 0
-15 -7 -15 -15z"/>
<path d="M3110 4895 c0 -8 7 -15 15 -15 8 0 15 7 15 15 0 8 -7 15 -15 15 -8 0
-15 -7 -15 -15z"/>
<path d="M3890 4865 c0 -8 7 -15 15 -15 8 0 15 7 15 15 0 8 -7 15 -15 15 -8 0
-15 -7 -15 -15z"/>
<path d="M3920 4805 c0 -8 7 -15 15 -15 8 0 15 7 15 15 0 8 -7 15 -15 15 -8 0
-15 -7 -15 -15z"/>
<path d="M3230 4746 c0 -9 7 -16 16 -16 17 0 14 22 -4 28 -7 2 -12 -3 -12 -12z"/>
<path d="M4010 4715 c0 -8 7 -15 15 -15 8 0 15 7 15 15 0 8 -7 15 -15 15 -8 0
-15 -7 -15 -15z"/>
<path d="M1405 4698 c-9 -27 0 -273 10 -271 13 4 17 271 4 279 -5 3 -11 -1
-14 -8z"/>
<path d="M4076 4632 c-3 -6 -1 -14 5 -17 15 -10 25 3 12 16 -7 7 -13 7 -17 1z"/>
<path d="M3410 4505 c0 -8 7 -15 15 -15 8 0 15 7 15 15 0 8 -7 15 -15 15 -8 0
-15 -7 -15 -15z"/>
<path d="M4190 4475 c0 -8 7 -15 15 -15 8 0 15 7 15 15 0 8 -7 15 -15 15 -8 0
-15 -7 -15 -15z"/>
<path d="M1405 4397 c-9 -22 -2 -62 10 -60 6 1 11 14 13 29 4 32 -14 56 -23
31z"/>
<path d="M2980 4385 c-7 -8 -20 -15 -29 -15 -9 0 -22 -5 -28 -11 -8 -8 -13 -8
-17 0 -4 6 -34 11 -67 11 -52 0 -59 -2 -59 -20 0 -15 -7 -20 -26 -20 -21 0
-24 -3 -19 -21 6 -18 4 -20 -14 -14 -22 7 -30 -10 -8 -18 9 -3 7 -9 -5 -24
-10 -11 -18 -29 -18 -40 0 -11 -7 -26 -15 -33 -8 -7 -24 -43 -36 -80 -11 -38
-29 -76 -39 -85 -20 -18 -18 -35 3 -35 21 0 59 67 52 89 -5 16 -1 23 19 30 17
7 23 15 19 29 -3 12 5 30 21 47 14 15 26 33 26 40 0 7 23 37 51 69 40 43 58
56 80 56 32 0 37 -11 14 -30 -9 -7 -13 -21 -10 -31 5 -14 -1 -22 -20 -29 -14
-5 -29 -20 -34 -33 -5 -14 -17 -27 -26 -31 -11 -4 -15 -12 -11 -23 4 -9 0 -23
-8 -32 -36 -41 -116 -167 -116 -183 0 -9 -5 -20 -11 -23 -5 -4 -14 -17 -20
-28 -14 -33 -33 -61 -46 -70 -7 -4 -13 -17 -13 -27 0 -19 -54 -80 -71 -80 -5
0 -9 -11 -9 -24 0 -14 -13 -40 -30 -58 -16 -18 -30 -37 -30 -43 0 -18 71 -5
77 14 3 9 14 35 24 58 10 24 19 47 19 52 0 5 7 14 16 21 8 8 22 27 29 44 17
36 35 64 53 84 6 7 12 19 12 27 0 7 6 15 14 18 8 3 16 18 18 34 2 20 9 29 26
31 12 2 22 7 22 11 0 4 11 13 24 19 18 8 22 16 19 36 -3 16 -1 26 6 26 6 0 16
10 22 23 31 67 40 77 59 67 26 -14 37 6 16 29 -21 23 -20 31 4 31 27 0 70 47
70 76 0 13 4 24 8 24 5 0 14 12 20 26 10 20 17 24 35 18 29 -8 35 -16 20 -21
-18 -6 -16 -44 3 -72 l16 -22 24 22 c13 12 24 28 24 36 0 7 4 13 9 13 5 0 17
3 26 7 14 5 16 2 11 -15 -8 -24 17 -42 61 -42 31 -1 78 -34 68 -49 -3 -6 4
-15 15 -21 23 -13 27 -48 5 -56 -8 -4 -15 -15 -15 -25 0 -11 -7 -22 -15 -25
-15 -6 -20 -35 -9 -47 7 -7 38 36 69 97 11 21 26 40 33 43 28 11 -5 63 -41 63
-9 0 -21 10 -28 23 -18 35 -51 57 -87 57 -26 0 -35 5 -39 21 -5 17 -12 20 -47
17 -32 -2 -42 1 -44 15 -5 22 -84 24 -102 2z"/>
<path d="M1939 4353 c-7 -7 -20 -11 -29 -8 -13 4 -37 -14 -84 -61 -36 -36 -66
-70 -66 -75 0 -5 -11 -14 -25 -19 -22 -8 -25 -15 -25 -61 0 -42 -3 -52 -20
-56 -25 -7 -26 -29 -2 -42 16 -9 16 -10 -1 -23 -13 -10 -18 -31 -21 -89 -2
-42 0 -82 4 -90 5 -7 4 -21 -1 -32 -9 -15 -7 -20 10 -24 18 -4 21 -13 21 -54
0 -37 4 -49 15 -49 9 0 15 -9 15 -23 0 -25 28 -57 48 -57 7 0 12 -11 12 -24 0
-28 90 -141 141 -177 17 -11 28 -27 26 -34 -7 -16 0 -24 49 -63 42 -32 64 -40
64 -23 0 5 9 11 20 14 11 3 20 1 20 -4 0 -5 -7 -9 -15 -9 -25 0 -17 -37 15
-71 28 -31 31 -32 43 -15 12 16 14 16 26 2 19 -23 31 -10 31 34 0 21 7 45 15
54 17 16 20 56 5 56 -5 0 -10 -11 -10 -25 0 -18 -5 -25 -19 -25 -13 0 -21 -8
-23 -22 -4 -30 -48 -39 -48 -10 0 10 9 27 20 37 24 22 26 48 4 66 -14 11 -18
11 -29 -4 -7 -9 -25 -17 -41 -17 -28 1 -28 1 -10 15 14 10 17 18 10 25 -7 7
-16 4 -29 -10 -20 -22 -47 -27 -39 -7 2 7 -11 29 -30 48 -34 34 -34 34 -19 69
13 32 16 33 27 18 16 -22 26 -23 26 -3 0 8 -4 15 -9 15 -5 0 -11 10 -14 22 -4
14 3 32 24 57 16 19 29 44 29 54 0 26 28 33 45 11 14 -18 14 -18 15 2 0 12 -7
24 -15 28 -20 7 -19 33 2 44 12 7 16 21 15 54 -2 35 3 50 23 74 27 31 28 36
19 72 -8 30 -24 28 -24 -3 0 -14 -7 -28 -15 -31 -8 -4 -15 -16 -15 -29 0 -13
-7 -26 -16 -29 -15 -6 -15 -8 1 -26 18 -20 13 -40 -10 -40 -8 0 -28 -20 -46
-45 -18 -25 -36 -45 -41 -45 -4 0 -8 -13 -8 -29 0 -19 -10 -40 -27 -58 -38
-39 -54 -69 -47 -88 4 -9 1 -15 -8 -15 -9 0 -14 12 -15 36 -1 44 -8 52 -33 36
-16 -10 -19 -8 -22 16 -2 15 1 38 6 50 8 19 6 26 -7 33 -12 7 -15 17 -11 34 5
19 1 27 -12 32 -17 6 -16 8 5 13 17 4 28 17 38 45 7 22 22 47 33 57 11 9 18
23 14 31 -3 9 4 21 16 30 16 11 20 21 15 36 -9 29 -35 27 -35 -4 0 -13 -6 -28
-14 -32 -14 -8 -58 -79 -78 -125 -8 -19 -20 -28 -35 -28 -26 0 -41 19 -23 30
6 4 10 16 8 26 -6 26 19 74 38 74 9 0 14 7 12 18 -3 21 40 82 59 82 8 0 13 12
13 29 0 16 5 31 12 33 14 5 4 38 -12 38 -5 0 -10 -9 -10 -19 0 -10 -7 -21 -15
-25 -8 -3 -15 -12 -15 -20 0 -9 -9 -20 -20 -26 -11 -6 -20 -20 -20 -31 0 -12
-8 -23 -20 -26 -13 -3 -20 -14 -20 -29 0 -14 -6 -24 -15 -24 -15 0 -13 13 12
60 7 14 13 31 13 38 0 6 7 12 15 12 15 0 22 20 8 20 -5 0 -14 4 -22 9 -22 14
5 54 30 46 20 -7 20 -6 4 19 -10 14 -21 26 -26 26 -5 0 -9 7 -9 15 0 8 4 15 9
15 5 0 14 -7 21 -15 7 -8 16 -15 21 -15 15 0 10 48 -6 54 -17 6 -20 32 -6 38
6 2 20 18 33 37 13 19 27 33 32 30 15 -6 13 -53 -3 -65 -18 -14 -6 -34 19 -34
24 0 41 -30 34 -57 -4 -15 0 -22 15 -26 26 -6 28 -43 5 -68 -15 -16 -15 -20
-1 -34 21 -20 30 -19 22 4 -5 15 -1 18 20 13 20 -3 25 0 25 16 0 11 -6 22 -14
25 -16 6 -56 85 -56 110 0 9 7 17 15 17 19 0 19 9 1 24 -7 6 -16 28 -19 48 -7
44 9 62 47 52 26 -6 35 -27 16 -39 -15 -9 -12 -41 5 -55 13 -10 19 -10 35 5
21 19 26 50 10 60 -6 4 -1 17 12 34 24 29 55 31 71 4 11 -19 24 -16 30 6 4 15
11 18 28 14 13 -3 30 -10 37 -16 8 -6 12 -6 12 3 0 6 10 20 22 29 11 10 18 23
15 28 -10 16 -75 13 -91 -3 -12 -11 -16 -11 -25 0 -16 19 -196 19 -212 -1z
m-179 -668 c0 -8 -4 -15 -10 -15 -5 0 -10 7 -10 15 0 8 5 15 10 15 6 0 10 -7
10 -15z m28 -42 c-5 -25 -28 -28 -28 -4 0 12 6 21 16 21 9 0 14 -7 12 -17z
m173 -96 c-1 -12 -15 -9 -19 4 -3 6 1 10 8 8 6 -3 11 -8 11 -12z"/>
<path d="M3532 4358 c6 -18 28 -21 28 -4 0 9 -7 16 -16 16 -9 0 -14 -5 -12
-12z"/>
<path d="M4310 4325 c0 -8 7 -15 15 -15 8 0 15 7 15 15 0 8 -7 15 -15 15 -8 0
-15 -7 -15 -15z"/>
<path d="M2286 4308 c-20 -28 -20 -48 -1 -48 8 0 15 -9 15 -20 0 -13 -7 -20
-20 -20 -14 0 -26 -14 -42 -47 -12 -27 -28 -52 -35 -56 -7 -4 -13 -17 -13 -28
0 -11 -7 -22 -16 -26 -10 -4 -14 -13 -10 -26 3 -12 1 -26 -4 -32 -16 -20 0
-55 26 -55 26 0 32 18 12 38 -8 8 -8 15 -1 24 26 32 73 131 73 153 0 16 6 25
16 25 13 0 15 -7 9 -42 -4 -24 -11 -44 -16 -46 -5 -2 -9 -17 -9 -34 0 -34 23
-35 28 0 2 11 10 26 18 32 8 7 14 21 14 31 0 11 5 19 10 19 6 0 10 9 10 21 0
13 11 25 35 35 19 8 35 16 35 19 0 9 -48 55 -58 55 -7 0 -19 11 -28 25 -20 31
-29 31 -48 3z"/>
<path d="M1407 4313 c-3 -5 -5 -47 -5 -95 0 -65 3 -88 13 -88 9 0 13 24 13 90
0 81 -8 115 -21 93z"/>
<path d="M2176 4271 c-6 -10 43 -46 51 -38 5 6 -28 47 -39 47 -4 0 -9 -4 -12
-9z"/>
<path d="M3116 4238 c5 -39 3 -49 -10 -54 -10 -4 -14 -14 -11 -28 4 -15 -4
-30 -30 -55 -37 -36 -42 -50 -23 -69 19 -19 40 -15 34 6 -4 11 2 28 14 42 11
13 20 29 20 35 0 7 6 15 14 18 8 3 16 16 18 28 4 30 25 35 33 9 4 -14 -3 -37
-25 -71 -17 -27 -28 -54 -25 -59 3 -5 1 -19 -5 -31 -8 -15 -9 -24 -1 -32 7 -7
13 -2 20 16 6 15 15 27 21 27 5 0 10 13 10 29 0 16 7 34 15 41 8 7 15 17 15
23 0 5 16 29 35 53 39 48 42 54 20 54 -9 0 -18 7 -21 15 -4 8 -12 15 -20 15
-17 0 -19 -26 -3 -36 8 -5 6 -10 -5 -16 -21 -12 -36 -2 -36 23 0 10 -5 19 -11
19 -6 0 -20 10 -30 23 l-20 22 7 -47z"/>
<path d="M2115 4219 c-4 -11 -18 -24 -31 -30 -28 -10 -23 -29 8 -29 11 0 22 8
25 20 3 11 9 20 14 20 5 0 9 9 9 20 0 26 -17 26 -25 -1z"/>
<path d="M2180 4199 c0 -11 5 -17 10 -14 6 3 10 13 10 21 0 8 -4 14 -10 14 -5
0 -10 -9 -10 -21z"/>
<path d="M2963 4203 c-3 -10 -8 -21 -10 -25 -2 -5 5 -8 16 -8 16 0 21 6 21 25
0 29 -18 34 -27 8z"/>
<path d="M3650 4205 c0 -8 7 -15 15 -15 8 0 15 7 15 15 0 8 -7 15 -15 15 -8 0
-15 -7 -15 -15z"/>
<path d="M3020 4178 c-21 -34 -27 -84 -10 -73 5 3 20 28 33 55 28 59 10 72
-23 18z"/>
<path d="M2435 4170 c-13 -14 -18 -33 -16 -58 1 -27 -5 -47 -23 -72 -15 -19
-29 -43 -32 -52 -4 -10 -10 -18 -15 -18 -5 0 -9 -4 -9 -10 0 -5 10 -9 23 -7
17 2 23 -4 25 -26 2 -16 8 -27 15 -24 16 5 21 57 8 70 -16 16 -13 40 4 33 16
-6 65 34 65 53 0 6 9 11 20 11 23 0 26 10 8 28 -7 7 -17 29 -23 49 -12 44 -25
50 -50 23z"/>
<path d="M2607 4183 c-4 -3 -7 -16 -7 -28 0 -13 -7 -28 -15 -35 -19 -16 -20
-50 -1 -50 8 0 17 11 20 25 4 14 11 25 16 25 6 0 10 16 10 35 0 33 -8 43 -23
28z"/>
<path d="M2140 4143 c-25 -42 -45 -54 -52 -31 -7 20 -26 -1 -21 -22 7 -28 36
-25 73 9 24 22 31 35 28 57 l-3 29 -25 -42z"/>
<path d="M3385 4165 c-4 -11 -18 -42 -31 -69 -17 -35 -23 -58 -19 -78 6 -23 2
-33 -19 -49 -15 -12 -26 -31 -26 -44 0 -14 -9 -29 -20 -35 -17 -9 -20 -17 -14
-45 4 -24 2 -35 -9 -41 -8 -5 -22 -29 -30 -54 -17 -50 -41 -63 -52 -28 -6 19
-8 20 -12 6 -2 -10 3 -25 11 -34 21 -21 20 -36 -4 -57 -21 -18 -27 -47 -10
-47 6 0 10 4 10 10 0 5 14 22 30 37 17 14 30 34 30 43 0 10 7 23 15 30 8 7 15
23 15 37 0 13 7 26 15 29 8 4 15 12 15 19 0 20 70 155 81 155 4 0 14 18 20 40
7 22 16 40 21 40 12 0 10 -78 -2 -85 -5 -3 -10 -14 -10 -24 0 -10 -7 -24 -15
-31 -8 -7 -15 -23 -15 -35 0 -12 -7 -28 -15 -35 -8 -7 -15 -18 -15 -25 0 -7
-7 -18 -15 -25 -8 -7 -15 -19 -15 -27 0 -29 -49 -121 -84 -158 -20 -21 -36
-42 -36 -47 0 -5 -7 -11 -15 -14 -18 -7 -20 -45 -3 -62 9 -9 7 -12 -10 -12
-14 0 -27 -9 -34 -25 -6 -14 -17 -25 -24 -25 -7 0 -14 -14 -16 -32 -4 -43 -25
-47 -36 -6 l-8 33 -18 -28 c-10 -15 -25 -27 -32 -27 -8 0 -14 -4 -14 -10 0 -5
5 -10 10 -10 13 0 13 -37 0 -45 -6 -4 -18 -1 -26 6 -8 6 -18 9 -22 5 -4 -4 0
-13 8 -20 8 -6 21 -21 28 -34 11 -20 10 -22 -13 -22 -18 0 -25 -5 -25 -20 0
-11 5 -20 10 -20 6 0 15 -12 20 -26 10 -25 30 -25 30 1 0 8 14 30 30 48 17 19
30 40 30 46 0 13 36 51 49 51 5 0 24 19 43 43 18 23 44 52 57 65 25 23 46 54
57 85 3 9 10 17 15 17 5 0 15 13 23 29 9 16 24 31 36 34 13 3 20 13 20 30 0
14 4 28 9 31 5 4 12 25 16 49 4 23 16 50 27 60 12 12 17 26 13 38 -7 20 9 27
20 9 9 -15 35 -12 35 4 0 8 -7 16 -15 20 -9 3 -15 18 -15 36 0 18 6 33 15 36
19 8 19 28 0 44 -14 12 -14 15 0 30 19 21 19 59 0 66 -8 4 -15 16 -15 29 0 13
-7 25 -14 28 -11 4 -13 16 -10 39 4 21 0 40 -10 53 -15 20 -15 20 -21 0z"/>
<path d="M1970 4138 c0 -16 4 -28 9 -28 18 0 20 17 6 36 -14 18 -14 18 -15 -8z"/>
<path d="M2930 4120 c0 -6 7 -22 16 -35 21 -32 12 -44 -38 -51 -29 -5 -36 -9
-25 -15 8 -5 18 -20 21 -35 9 -36 38 -28 47 14 4 18 14 41 23 51 20 22 21 51
2 51 -8 0 -16 7 -20 15 -6 17 -26 20 -26 5z"/>
<path d="M3710 4115 c0 -8 7 -15 15 -15 8 0 15 7 15 15 0 8 -7 15 -15 15 -8 0
-15 -7 -15 -15z"/>
<path d="M1405 4097 c-9 -22 -2 -62 10 -60 6 1 11 14 13 29 4 32 -14 56 -23
31z"/>
<path d="M4490 4085 c0 -8 7 -15 15 -15 8 0 15 7 15 15 0 8 -7 15 -15 15 -8 0
-15 -7 -15 -15z"/>
<path d="M2518 4031 c-15 -16 -30 -42 -34 -57 -4 -16 -14 -35 -21 -43 -16 -15
-14 -62 2 -61 6 0 10 12 11 26 1 15 8 31 17 35 8 5 21 24 27 43 6 19 17 37 25
40 15 5 21 46 8 46 -5 -1 -20 -14 -35 -29z"/>
<path d="M2034 4015 c-3 -14 -10 -25 -15 -25 -5 0 -9 -9 -9 -20 0 -11 5 -20
10 -20 6 0 10 9 10 20 0 11 7 20 15 20 8 0 15 9 15 19 0 30 -19 35 -26 6z"/>
<path d="M2228 4010 c-15 -17 -15 -19 -1 -25 17 -6 33 10 33 33 0 17 -12 14
-32 -8z"/>
<path d="M3003 4009 c3 -13 -2 -28 -14 -40 -10 -10 -19 -30 -19 -44 0 -13 -6
-28 -14 -32 -7 -4 -23 -27 -35 -50 -12 -24 -26 -43 -31 -43 -15 0 -12 -38 3
-43 29 -10 99 50 91 79 -3 13 5 29 25 49 17 17 31 40 31 53 0 15 6 22 20 22
22 0 27 -27 10 -60 -5 -11 -14 -29 -20 -40 -12 -23 -3 -50 16 -50 8 0 11 6 7
16 -4 10 1 22 11 30 12 8 20 31 23 63 l5 51 -40 0 c-36 0 -40 3 -45 30 -4 17
-12 30 -18 30 -7 0 -9 -9 -6 -21z"/>
<path d="M3218 3981 c-13 -28 -29 -51 -35 -51 -7 0 -13 -9 -13 -19 0 -11 -4
-23 -10 -26 -5 -3 -17 -22 -26 -41 -9 -19 -25 -39 -35 -45 -13 -7 -19 -21 -19
-46 l0 -36 25 27 c14 15 25 33 25 41 0 8 5 17 10 20 6 4 17 21 26 38 18 38 45
86 66 119 22 34 28 57 18 63 -5 3 -20 -17 -32 -44z"/>
<path d="M1402 3933 c0 -85 5 -116 18 -108 5 3 8 46 8 95 0 68 -3 90 -13 90
-10 0 -14 -20 -13 -77z"/>
<path d="M4581 3976 c-9 -11 -6 -18 19 -36 40 -28 48 -20 20 19 -25 36 -24 35
-39 17z"/>
<path d="M2059 3939 c-7 -22 -22 -48 -34 -57 -12 -9 -24 -25 -28 -34 -3 -10
-11 -18 -17 -18 -15 0 -12 26 6 40 16 14 16 63 -1 58 -5 -2 -8 -10 -7 -17 2
-8 -3 -20 -11 -26 -8 -6 -17 -22 -19 -35 -1 -14 -16 -33 -34 -45 -23 -15 -30
-27 -31 -52 -1 -23 4 -33 14 -33 9 0 12 6 9 18 -3 10 5 29 20 45 20 23 30 27
53 22 25 -5 31 -2 50 30 11 20 21 43 21 51 0 8 7 14 15 14 9 0 15 9 15 25 0
14 7 28 16 32 13 5 13 7 2 14 -22 14 -27 11 -39 -32z"/>
<path d="M3832 3971 c2 -7 7 -12 11 -12 12 1 9 15 -3 20 -7 2 -11 -2 -8 -8z"/>
<path d="M2738 3959 c-10 -5 -18 -19 -18 -29 0 -11 -4 -20 -10 -20 -5 0 -10
-12 -10 -27 l0 -28 25 30 c13 17 24 40 25 52 0 12 8 24 18 26 12 3 13 5 2 6
-8 0 -23 -4 -32 -10z"/>
<path d="M2850 3968 c0 -4 5 -19 10 -34 14 -37 6 -61 -15 -44 -9 7 -17 11 -19
9 -11 -14 -36 -75 -36 -89 0 -10 -7 -23 -15 -30 -8 -7 -15 -19 -15 -27 0 -7
-6 -16 -13 -19 -21 -8 -59 -63 -52 -75 5 -6 12 -6 22 2 11 10 19 10 33 1 11
-7 21 -8 25 -2 3 5 1 11 -5 15 -19 12 -11 45 10 45 11 0 23 8 26 18 3 9 10 25
15 34 5 10 9 24 9 32 0 25 23 66 36 66 8 0 21 16 29 36 19 45 19 44 -3 44 -10
0 -23 5 -30 12 -7 7 -12 9 -12 6z"/>
<path d="M2529 3908 c-12 -24 -28 -47 -36 -51 -8 -5 -11 -16 -8 -27 4 -13 -1
-23 -14 -32 -24 -15 -28 -58 -6 -58 8 0 15 5 15 10 0 6 12 23 26 37 16 16 24
33 21 45 -4 15 -1 18 13 13 15 -5 19 1 25 35 4 22 11 40 16 40 5 0 9 7 9 15 0
33 -40 15 -61 -27z"/>
<path d="M2220 3910 c0 -23 4 -30 20 -30 12 0 20 7 20 18 0 9 -9 23 -20 30
-18 11 -20 10 -20 -18z"/>
<path d="M2322 3921 c9 -15 9 -25 0 -46 -7 -14 -12 -34 -12 -43 0 -9 -9 -23
-21 -30 -13 -8 -19 -20 -16 -31 2 -10 0 -25 -4 -34 -11 -20 -1 -47 17 -47 8 0
17 -6 20 -14 10 -26 45 20 38 48 -4 18 0 30 15 42 14 12 19 25 15 40 -3 12 -1
25 5 28 21 13 11 47 -21 77 -37 33 -54 38 -36 10z m28 -76 c0 -8 -4 -15 -10
-15 -5 0 -10 7 -10 15 0 8 5 15 10 15 6 0 10 -7 10 -15z"/>
<path d="M2210 3845 c0 -14 4 -25 9 -25 12 0 23 29 15 41 -10 18 -24 9 -24
-16z"/>
<path d="M2660 3825 c0 -14 -4 -25 -10 -25 -5 0 -10 -6 -10 -14 0 -8 -7 -21
-15 -30 -8 -8 -18 -29 -21 -45 -10 -49 20 -39 36 12 17 49 27 59 52 46 14 -7
18 -6 18 5 0 8 -4 18 -10 21 -5 3 -10 17 -10 31 0 15 -6 24 -15 24 -9 0 -15
-9 -15 -25z"/>
<path d="M2157 3823 c-5 -9 -10 -57 -8 -85 2 -27 21 -21 21 6 0 13 7 26 15 30
8 3 15 12 15 20 0 17 -36 40 -43 29z"/>
<path d="M3950 3815 c0 -8 7 -15 15 -15 8 0 15 7 15 15 0 8 -7 15 -15 15 -8 0
-15 -7 -15 -15z"/>
<path d="M4702 3819 c2 -7 10 -15 17 -17 8 -3 12 1 9 9 -2 7 -10 15 -17 17 -8
3 -12 -1 -9 -9z"/>
<path d="M1405 3797 c-9 -22 -2 -62 10 -60 6 1 11 14 13 29 4 32 -14 56 -23
31z"/>
<path d="M3180 3780 c0 -11 5 -20 10 -20 6 0 10 9 10 20 0 11 -4 20 -10 20 -5
0 -10 -9 -10 -20z"/>
<path d="M1967 3769 c-9 -6 -17 -16 -17 -24 0 -12 5 -12 25 -3 14 6 25 15 25
19 0 14 -15 18 -33 8z"/>
<path d="M3023 3751 c-3 -12 -9 -21 -14 -21 -4 0 -9 -12 -11 -27 -3 -25 -7
-28 -35 -25 -38 2 -42 -7 -12 -26 12 -8 18 -19 15 -28 -5 -12 32 -63 37 -52 1
2 9 17 18 35 12 21 14 34 7 41 -6 6 -7 19 -4 29 7 17 8 17 20 1 19 -26 26 -22
26 12 0 17 -4 30 -10 30 -5 0 -9 10 -7 21 3 29 -23 37 -30 10z"/>
<path d="M2850 3715 c0 -13 -6 -28 -13 -32 -7 -4 -17 -26 -22 -48 -9 -37 -13
-40 -48 -43 -22 -2 -41 -10 -44 -18 -3 -8 -11 -14 -19 -14 -16 0 -34 -31 -34
-58 0 -10 -9 -29 -20 -42 -11 -13 -20 -28 -20 -35 0 -7 -11 -24 -25 -39 -14
-15 -25 -32 -25 -38 0 -18 -51 -60 -66 -54 -26 10 -15 51 21 83 23 21 35 40
35 57 0 15 7 29 15 32 8 4 15 15 15 25 0 11 6 28 13 39 10 17 9 22 -3 30 -28
18 -43 12 -36 -14 4 -18 -2 -37 -24 -69 -16 -25 -30 -56 -30 -70 0 -14 -7 -27
-15 -31 -8 -3 -15 -10 -15 -16 0 -6 -16 -27 -36 -45 -21 -20 -33 -39 -28 -46
5 -8 12 -5 23 10 13 17 19 19 29 9 6 -6 12 -18 12 -25 0 -7 9 -13 20 -13 17 0
19 -5 15 -27 -3 -16 -2 -21 2 -13 3 8 14 21 25 28 10 7 18 22 18 33 0 10 4 19
9 19 15 0 101 139 101 165 0 18 81 105 99 105 18 0 43 25 54 53 3 9 13 17 22
17 12 0 14 6 9 26 -5 18 -1 29 11 38 21 15 14 46 -10 46 -9 0 -15 -9 -15 -25z"/>
<path d="M4010 3726 c0 -9 7 -16 16 -16 9 0 14 5 12 12 -6 18 -28 21 -28 4z"/>
<path d="M2392 3695 l-33 -32 25 -17 c32 -20 36 -20 36 2 0 9 7 26 15 36 18
24 19 46 3 45 -7 -1 -28 -16 -46 -34z"/>
<path d="M1405 3708 c-8 -25 0 -193 10 -196 13 -3 17 196 4 203 -5 4 -11 0
-14 -7z"/>
<path d="M1926 3696 c-10 -16 -28 -26 -48 -29 -30 -4 -31 -5 -11 -12 18 -6 22
-14 20 -41 -3 -44 17 -44 21 1 2 19 7 35 13 35 5 0 9 6 9 14 0 8 7 16 15 20
16 6 21 36 6 36 -5 0 -16 -11 -25 -24z"/>
<path d="M2120 3695 c0 -8 5 -15 10 -15 6 0 10 7 10 15 0 8 -4 15 -10 15 -5 0
-10 -7 -10 -15z"/>
<path d="M2193 3681 c4 -15 -1 -26 -14 -34 -10 -6 -19 -16 -19 -21 0 -5 -7
-17 -15 -26 -8 -9 -16 -34 -17 -55 -3 -30 -8 -41 -23 -43 -33 -6 -42 -22 -17
-28 24 -7 28 -24 10 -42 -9 -9 -9 -15 -1 -23 8 -8 13 -6 17 9 4 11 13 23 21
26 8 3 15 12 15 21 0 11 11 15 46 15 28 0 43 4 39 10 -3 6 -17 7 -29 4 -15 -3
-25 0 -29 9 -8 21 9 41 28 33 21 -8 55 10 55 29 0 8 -4 15 -10 15 -5 0 -10 -4
-10 -10 0 -5 -7 -10 -15 -10 -8 0 -15 7 -15 15 0 8 5 15 10 15 6 0 10 7 10 15
0 24 29 30 45 9 14 -18 14 -18 15 4 0 12 -4 22 -9 22 -5 0 -11 9 -14 20 -5 20
-37 29 -37 10 0 -5 -4 -10 -9 -10 -5 0 -8 7 -7 16 0 9 -5 19 -13 22 -10 3 -12
-1 -8 -17z"/>
<path d="M4070 3664 c0 -9 5 -14 12 -12 18 6 21 28 4 28 -9 0 -16 -7 -16 -16z"/>
<path d="M3090 3635 c0 -8 5 -15 10 -15 6 0 10 7 10 15 0 8 -4 15 -10 15 -5 0
-10 -7 -10 -15z"/>
<path d="M4106 3612 c-3 -6 -1 -14 5 -17 15 -10 25 3 12 16 -7 7 -13 7 -17 1z"/>
<path d="M2358 3590 c12 -11 31 -20 44 -19 23 0 23 0 2 9 -12 5 -25 13 -29 19
-3 6 -14 11 -22 11 -14 0 -13 -4 5 -20z"/>
<path d="M2060 3586 c0 -8 5 -18 10 -21 6 -3 10 3 10 14 0 12 -4 21 -10 21 -5
0 -10 -6 -10 -14z"/>
<path d="M2864 3582 c-23 -15 -84 -103 -84 -122 0 -10 -8 -23 -17 -29 -12 -6
-15 -13 -8 -20 7 -6 15 -6 25 2 20 16 76 99 84 125 4 11 14 23 22 26 8 3 12
10 9 16 -7 12 -16 12 -31 2z"/>
<path d="M3060 3575 c0 -9 5 -15 11 -13 6 2 11 8 11 13 0 5 -5 11 -11 13 -6 2
-11 -4 -11 -13z"/>
<path d="M2940 3568 c0 -7 9 -24 20 -38 16 -20 20 -22 20 -7 0 9 -9 26 -20 37
-12 12 -20 15 -20 8z"/>
<path d="M3100 3553 c-13 -18 -31 -33 -39 -33 -20 0 -61 -43 -61 -64 0 -21 16
-20 29 2 9 14 11 12 17 -15 8 -41 24 -43 24 -3 0 18 6 33 15 36 8 4 15 17 15
30 0 12 7 27 16 32 9 5 14 18 12 28 -3 16 -7 14 -28 -13z"/>
<path d="M2445 3550 c-4 -6 7 -10 24 -10 17 0 31 5 31 10 0 6 -11 10 -24 10
-14 0 -28 -4 -31 -10z"/>
<path d="M2276 3532 c-3 -6 -1 -14 5 -17 15 -10 25 3 12 16 -7 7 -13 7 -17 1z"/>
<path d="M2328 3510 c-9 -10 -19 -27 -23 -39 -3 -12 -11 -21 -16 -21 -5 0 -9
-11 -9 -25 0 -14 5 -25 10 -25 6 0 10 4 10 10 0 5 10 18 22 30 19 17 24 18 37
6 27 -23 56 -5 56 35 1 19 -4 37 -10 41 -18 13 -60 7 -77 -12z m72 -18 c0 -12
-23 -32 -37 -32 -7 0 -13 9 -13 20 0 15 7 20 25 20 14 0 25 -4 25 -8z"/>
<path d="M4192 3521 c2 -7 7 -12 11 -12 12 1 9 15 -3 20 -7 2 -11 -2 -8 -8z"/>
<path d="M2456 3491 c-3 -4 6 -13 19 -19 25 -12 42 -1 30 18 -8 12 -42 13 -49
1z"/>
<path d="M2875 3467 c5 -18 -4 -34 -39 -72 -52 -57 -61 -86 -33 -110 22 -19
36 -13 18 8 -8 10 -8 22 -2 38 l10 24 7 -22 c3 -13 10 -23 15 -23 13 0 11 38
-3 42 -7 3 -9 12 -5 22 5 13 11 15 25 7 21 -11 52 3 52 24 0 7 8 27 17 44 17
29 10 59 -7 31 -7 -12 -12 -12 -22 -2 -21 21 -39 15 -33 -11z"/>
<path d="M2150 3410 c0 -28 37 -67 50 -54 8 8 6 15 -5 24 -8 7 -15 21 -15 31
0 11 -7 19 -15 19 -8 0 -15 -9 -15 -20z"/>
<path d="M1550 3400 c0 -11 7 -20 15 -20 8 0 15 9 15 20 0 11 -7 20 -15 20 -8
0 -15 -9 -15 -20z"/>
<path d="M2354 3409 c-8 -14 18 -31 30 -19 9 9 0 30 -14 30 -5 0 -12 -5 -16
-11z"/>
<path d="M2732 3370 c-18 -11 -39 -20 -47 -20 -17 0 -20 -26 -5 -35 15 -9 2
-25 -20 -25 -26 0 -34 -17 -16 -35 17 -17 12 -40 -16 -69 -16 -17 -18 -18 -24
-3 -11 29 -26 19 -19 -13 6 -26 4 -30 -14 -30 -12 0 -21 -6 -21 -14 0 -17 -56
-66 -75 -66 -8 0 -19 -9 -25 -21 -9 -16 -19 -19 -47 -17 -39 3 -60 28 -24 28
15 0 30 14 49 45 27 45 46 56 55 33 2 -7 8 -10 12 -6 5 5 3 19 -3 33 -7 14
-12 39 -12 55 0 17 -4 30 -8 30 -12 0 -44 -59 -37 -69 3 -5 -5 -11 -17 -13
-13 -2 -22 -9 -21 -15 2 -7 -2 -25 -8 -40 l-10 -28 -19 25 c-11 14 -17 32 -15
41 3 9 -4 24 -15 34 -19 18 -20 18 -20 -4 0 -12 -8 -25 -17 -28 -10 -4 -21
-11 -25 -17 -4 -6 -10 -7 -15 -3 -4 5 -1 12 6 16 8 5 11 17 7 28 -4 12 1 28
14 43 11 13 20 36 20 52 0 25 -4 29 -22 26 -16 -2 -22 -9 -20 -22 4 -19 -3
-37 -40 -109 -19 -37 -19 -39 -2 -58 21 -24 84 -27 84 -4 0 8 7 15 15 15 8 0
15 -5 15 -10 0 -6 -7 -13 -15 -16 -37 -15 11 -94 56 -94 36 0 59 -9 59 -24 0
-14 87 -91 103 -91 16 0 32 68 17 73 -6 2 -23 15 -37 28 -14 13 -30 24 -35 24
-5 0 -4 9 3 21 8 15 14 18 22 10 18 -18 37 -13 37 10 0 17 4 20 24 15 20 -5
26 -1 32 16 4 13 17 37 30 54 13 17 24 35 24 41 0 5 9 20 20 33 11 12 17 27
13 33 -3 5 0 15 8 21 21 16 49 63 49 81 0 9 9 19 20 23 12 4 16 12 12 19 -6 9
-16 7 -40 -7z"/>
<path d="M2406 3364 c-19 -19 -21 -34 -3 -34 6 0 17 11 24 25 13 28 2 33 -21
9z"/>
<path d="M2250 3362 c0 -9 56 -62 65 -62 13 0 2 23 -21 45 -27 25 -44 32 -44
17z"/>
<path d="M2363 3294 c-4 -10 0 -21 8 -28 9 -6 18 -19 22 -29 4 -10 11 -15 17
-12 15 10 12 35 -5 35 -8 0 -15 9 -15 19 0 26 -18 37 -27 15z"/>
<path d="M2756 3274 c-3 -9 -6 -23 -6 -33 0 -10 -11 -28 -25 -41 -28 -26 -33
-60 -10 -60 8 0 15 6 15 14 0 8 8 17 18 20 27 10 50 66 38 94 -13 26 -22 28
-30 6z"/>
<path d="M2887 3284 c-4 -4 -7 -18 -7 -31 0 -28 23 -27 28 1 4 20 -11 40 -21
30z"/>
<path d="M4370 3275 c0 -8 7 -15 15 -15 8 0 15 7 15 15 0 8 -7 15 -15 15 -8 0
-15 -7 -15 -15z"/>
<path d="M1607 3231 c-5 -22 0 -31 20 -31 7 0 13 11 13 25 0 30 -25 34 -33 6z"/>
<path d="M4400 3215 c0 -8 7 -15 15 -15 8 0 15 7 15 15 0 8 -7 15 -15 15 -8 0
-15 -7 -15 -15z"/>
<path d="M2840 3201 c0 -11 9 -23 20 -26 24 -7 27 -33 5 -41 -10 -4 -13 -13
-10 -24 6 -18 -19 -35 -36 -24 -14 8 -11 40 6 54 17 14 20 30 5 30 -15 0 -50
-38 -50 -55 0 -9 -16 -31 -35 -51 -19 -19 -35 -44 -35 -55 0 -15 -5 -19 -16
-15 -9 3 -20 6 -25 6 -14 0 -11 38 4 47 6 4 18 18 24 30 11 19 10 24 -4 32
-14 7 -22 -1 -47 -53 -23 -44 -37 -62 -54 -64 -22 -3 -33 -42 -11 -42 6 0 8
-7 5 -17 -7 -17 9 -33 32 -33 6 0 12 5 12 11 0 11 40 48 53 49 4 0 7 -12 7
-26 0 -35 19 -26 43 19 12 23 26 37 38 37 10 0 19 -4 19 -10 0 -20 39 -10 58
15 11 14 25 25 31 25 16 0 81 68 81 85 0 8 -3 15 -6 15 -10 0 -54 -50 -54 -61
0 -5 -7 -9 -15 -9 -18 0 -20 26 -2 37 7 4 19 23 26 41 13 31 12 33 -20 62 -40
35 -49 37 -49 11z m8 -168 c2 -8 -5 -13 -17 -13 -11 0 -23 -5 -26 -10 -9 -15
-25 -2 -25 21 0 17 6 20 32 17 17 -2 33 -9 36 -15z"/>
<path d="M1340 3140 c0 -20 5 -30 15 -30 10 0 15 10 15 30 0 20 -5 30 -15 30
-10 0 -15 -10 -15 -30z"/>
<path d="M1640 3155 c0 -8 7 -15 15 -15 8 0 15 7 15 15 0 8 -7 15 -15 15 -8 0
-15 -7 -15 -15z"/>
<path d="M4522 3071 c2 -7 7 -12 11 -12 12 1 9 15 -3 20 -7 2 -11 -2 -8 -8z"/>
<path d="M1315 3050 c-8 -13 -1 -24 14 -19 6 3 7 10 2 18 -6 10 -10 10 -16 1z"/>
<path d="M1238 2969 c-35 -37 -14 -55 22 -19 11 11 20 25 20 30 0 16 -23 10
-42 -11z"/>
<path d="M1851 2956 c-9 -10 -8 -16 3 -25 10 -9 16 -8 25 3 9 10 8 16 -3 25
-10 9 -16 8 -25 -3z"/>
<path d="M1160 2915 c0 -10 7 -15 18 -13 21 4 19 22 -2 26 -10 2 -16 -3 -16
-13z"/>
<path d="M1940 2915 c0 -10 7 -15 18 -13 21 4 19 22 -2 26 -10 2 -16 -3 -16
-13z"/>
<path d="M4645 2912 c6 -4 15 -16 21 -27 12 -22 27 -23 32 -2 1 7 -9 19 -23
25 -29 13 -45 16 -30 4z"/>
<path d="M2007 2894 c-4 -4 -7 -25 -7 -46 0 -49 23 -47 28 2 3 32 -8 56 -21
44z"/>
<path d="M4700 2825 c0 -8 7 -15 15 -15 8 0 15 7 15 15 0 8 -7 15 -15 15 -8 0
-15 -7 -15 -15z"/>
</g>
</svg>
